<?xml version="1.0" encoding="utf-8"?>
<!-- Generator: Adobe Illustrator 21.1.0, SVG Export Plug-In . SVG Version: 6.00 Build 0)  -->
<svg version="1.1" id="_x32_" xmlns="http://www.w3.org/2000/svg" xmlns:xlink="http://www.w3.org/1999/xlink" x="0px" y="0px"
	 viewBox="0 0 18 18" style="enable-background:new 0 0 18 18;" xml:space="preserve">
<style type="text/css">
	.st0{fill:#754234;stroke:#F7E032;stroke-width:0.5;stroke-miterlimit:10;}
</style>
<g>
	<path class="st0" d="M15.2,5.4L15.2,5.4L15.2,5.4z"/>
	<path class="st0" d="M15.2,5.4c0,0,0.1,0.1,0.2,0.4C15.7,6.5,15.3,5.5,15.2,5.4z"/>
	<path class="st0" d="M15.4,5.8C12.9,0.2,4.6,0.5,2.5,6.3c-2.3,5.9,4,12.4,9.9,9c-0.1-0.2-0.4-1-0.6-1.1c-1,0.6-2.1,0.8-3.3,0.7
		c-2.3-0.2-4.2-1.8-4.9-4C2,6.3,6.5,1.4,11.2,3.4c2.1,0.9,3.6,2.9,3.6,5.2c0,0.8-0.2,1.9-0.8,2.5c-0.6,0.5-1.6,0.4-1.9-0.3
		c-0.4-0.9,0-2.1,0.2-3c0.1-0.5,0.2-1.1,0.3-1.6c0-0.1-1-0.2-1.2-0.2c0,0.1,0,0.2-0.1,0.3c-2.6-2-5.7,0.4-5.7,3.2
		c0,2.7,3.6,4.2,5.4,2c0.9,1.4,2.9,1.4,4,0.2C16.3,10.1,16.2,7.6,15.4,5.8z M10.2,10.6c-1.6,2.1-4.5-0.7-2.8-2.9
		c0.7-0.9,2.1-1.2,3-0.6C11.3,7.8,10.7,9.9,10.2,10.6z"/>
</g>
</svg>
