<?xml version="1.0" encoding="UTF-8"?>
<svg width="38px" height="39px" viewBox="0 0 38 39" version="1.1" xmlns="http://www.w3.org/2000/svg" xmlns:xlink="http://www.w3.org/1999/xlink">
    <!-- Generator: Sketch 43.2 (39069) - http://www.bohemiancoding.com/sketch -->
    <title>ic_atmark_kira_18px</title>
    <desc>Created with Sketch.</desc>
    <defs></defs>
    <g id="Page-1" stroke="none" stroke-width="1" fill="none" fill-rule="evenodd">
        <g id="ic_atmark_kira_18px" transform="translate(1.000000, 1.000000)" stroke="#F7E032" stroke-width="0.5" fill="#754234" fill-rule="nonzero">
            <path d="M33.9228319,9.39026549 C33.9228319,9.39026549 34.179823,9.64712389 34.4368142,10.4176991 C35.2077876,12.215708 34.179823,9.64712389 33.9228319,9.39026549 Z" id="Shape"></path>
            <path d="M34.4368142,10.4176991 C28.0120354,-3.96637168 6.68176991,-3.19579646 1.28495575,11.7019912 C-4.62584071,26.8566372 11.5646018,43.5524336 26.7270796,34.8192478 C26.4700885,34.305531 25.699115,32.2506637 25.1851327,31.9938053 C22.6152212,33.5349558 19.7883186,34.0486726 16.7044248,33.7918142 C10.7936283,33.2780973 5.91079646,29.1683628 4.11185841,23.5174779 C3.33066907e-16,11.7019912 11.5646018,-0.884070796 23.6431858,4.25309735 C29.04,6.56482301 32.8948673,11.7019912 32.8948673,17.6097345 C32.8948673,19.6646018 32.380885,22.4900442 30.8389381,24.0311947 C29.2969912,25.3154867 26.7270796,25.0586283 25.9561062,23.2606195 C24.9281416,20.9488938 25.9561062,17.8665929 26.4700885,15.5548673 C26.7270796,14.2705752 26.9840708,12.7294248 27.2410619,11.4451327 C27.2410619,11.1882743 24.6711504,10.9314159 24.1571681,10.9314159 C24.1571681,11.1882743 24.1571681,11.4451327 23.900177,11.7019912 C17.2184071,6.56482301 9.25168142,12.7294248 9.25168142,19.9214602 C9.25168142,26.8566372 18.5033628,30.7095133 23.1292035,25.0586283 C25.4421239,28.654646 30.5819469,28.654646 33.4088496,25.5723451 C36.7497345,21.4626106 36.4927434,15.0411504 34.4368142,10.4176991 Z M21.0732743,22.7469027 C16.9614159,28.1409292 9.50867257,20.9488938 13.8775221,15.2980088 C15.6764602,12.9862832 19.2743363,12.215708 21.5872566,13.7568584 C23.900177,15.5548673 22.3582301,20.9488938 21.0732743,22.7469027 Z" id="Shape"></path>
        </g>
    </g>
</svg>