<?xml version="1.0" encoding="UTF-8"?>
<svg width="36px" height="36px" viewBox="0 0 36 36" version="1.1" xmlns="http://www.w3.org/2000/svg" xmlns:xlink="http://www.w3.org/1999/xlink">
    <!-- Generator: Sketch 43.2 (39069) - http://www.bohemiancoding.com/sketch -->
    <title>ic_group_kira_18px</title>
    <desc>Created with Sketch.</desc>
    <defs></defs>
    <g id="Page-1" stroke="none" stroke-width="1" fill="none" fill-rule="evenodd">
        <g id="ic_group_kira_18px">
            <polygon id="Shape" points="0 0 36 0 36 36 0 36"></polygon>
            <path d="M24,16.4 C26.4,16.4 28.4,14.4 28.4,12 C28.4,9.6 26.4,7.6 24,7.6 C21.6,7.6 19.6,9.6 19.6,12 C19.6,14.4 21.6,16.4 24,16.4 Z M12,16.4 C14.4,16.4 16.4,14.4 16.4,12 C16.4,9.6 14.4,7.6 12,7.6 C9.6,7.6 7.6,9.6 7.6,12 C7.6,14.4 9.6,16.4 12,16.4 Z M12,19.6 C8.6,19.6 1.6,21.4 1.6,24.8 L1.6,28.6 L22.6,28.6 L22.6,24.8 C22.4,21.2 15.4,19.6 12,19.6 Z M24,19.6 L22.6,19.6 C24.4,20.8 25.6,22.6 25.6,24.8 L25.6,28.6 L34.6,28.6 L34.6,24.8 C34.4,21.2 27.4,19.6 24,19.6 Z" id="Shape" stroke="#F7E032" stroke-width="0.5" fill="#754234" fill-rule="nonzero"></path>
        </g>
    </g>
</svg>