<?xml version="1.0" encoding="UTF-8"?>
<svg width="36px" height="36px" viewBox="0 0 36 36" version="1.1" xmlns="http://www.w3.org/2000/svg" xmlns:xlink="http://www.w3.org/1999/xlink">
    <!-- Generator: Sketch 43.2 (39069) - http://www.bohemiancoding.com/sketch -->
    <title>ic_list_kira_18px</title>
    <desc>Created with Sketch.</desc>
    <defs></defs>
    <g id="Page-1" stroke="none" stroke-width="1" fill="none" fill-rule="evenodd">
        <g id="ic_list_kira_18px" transform="translate(3.000000, 3.000000)">
            <path d="M2,10 L5.33333333,10 L5.33333333,6.66666667 L2,6.66666667 L2,10 L2,10 Z M7.5,6.83333333 L7.5,10.1666667 L27.8333333,10.1666667 L27.8333333,6.83333333 L7.5,6.83333333 Z" id="Shape" stroke="#F7E032" stroke-width="0.5" fill="#754234" fill-rule="nonzero"></path>
            <path d="M2,14.5 L5.33333333,14.5 L5.33333333,11.1666667 L2,11.1666667 L2,14.5 L2,14.5 Z M7.5,11.1666667 L7.5,14.5 L27.8333333,14.5 L27.8333333,11.1666667 L7.5,11.1666667 L7.5,11.1666667 Z" id="Shape" stroke="#F7E032" stroke-width="0.5" fill="#754234" fill-rule="nonzero"></path>
            <path d="M2,18.8333333 L5.33333333,18.8333333 L5.33333333,15.5 L2,15.5 L2,18.8333333 L2,18.8333333 Z M7.5,15.5 L7.5,18.8333333 L27.8333333,18.8333333 L27.8333333,15.5 L7.5,15.5 Z" id="Shape" stroke="#F7E032" stroke-width="0.5" fill="#754234" fill-rule="nonzero"></path>
            <path d="M2,23.1666667 L5.33333333,23.1666667 L5.33333333,19.8333333 L2,19.8333333 L2,23.1666667 L2,23.1666667 Z M7.5,20 L7.5,23.3333333 L27.8333333,23.3333333 L27.8333333,20 L7.5,20 Z" id="Shape" stroke="#F7E032" stroke-width="0.5" fill="#754234" fill-rule="nonzero"></path>
            <polygon id="Shape" points="0 0 30 0 30 30 0 30"></polygon>
        </g>
    </g>
</svg>