<?xml version="1.0" encoding="utf-8"?>
<!-- Generator: Adobe Illustrator 21.1.0, SVG Export Plug-In . SVG Version: 6.00 Build 0)  -->
<svg version="1.1" id="レイヤー_1" xmlns="http://www.w3.org/2000/svg" xmlns:xlink="http://www.w3.org/1999/xlink" x="0px"
	 y="0px" viewBox="0 0 18 18" style="enable-background:new 0 0 18 18;" xml:space="preserve">
<style type="text/css">
	.st0{fill:#754234;stroke:#F7E032;stroke-width:0.5;stroke-miterlimit:10;}
</style>
<g>
	<g>
		<path class="st0" d="M15.6,13.7L12,10.2c0.5-0.8,0.8-1.7,0.8-2.7c0-3-2.4-5.4-5.4-5.4S2,4.5,2,7.4c0,3,2.4,5.4,5.4,5.4
			c1,0,2-0.3,2.8-0.8l3.6,3.5c0.3,0.3,0.6,0.4,0.9,0.4c0.3,0,0.7-0.1,0.9-0.4C16.1,15.1,16.1,14.2,15.6,13.7z M3.6,7.4
			c0-2.1,1.7-3.8,3.8-3.8s3.8,1.7,3.8,3.8c0,2.1-1.7,3.8-3.8,3.8S3.6,9.6,3.6,7.4z"/>
	</g>
</g>
</svg>
