<?xml version="1.0" encoding="UTF-8"?>
<svg width="36px" height="36px" viewBox="0 0 36 36" version="1.1" xmlns="http://www.w3.org/2000/svg" xmlns:xlink="http://www.w3.org/1999/xlink">
    <!-- Generator: Sketch 43.2 (39069) - http://www.bohemiancoding.com/sketch -->
    <title>ic_search_kira_18px</title>
    <desc>Created with Sketch.</desc>
    <defs></defs>
    <g id="Page-1" stroke="none" stroke-width="1" fill="none" fill-rule="evenodd">
        <g id="ic_search_kira_18px" transform="translate(5.000000, 5.000000)" stroke="#F7E032" stroke-width="0.5" fill="#754234" fill-rule="nonzero">
            <path d="M25.2571429,21.7285714 L18.5714286,15.2285714 C19.5,13.7428571 20.0571429,12.0714286 20.0571429,10.2142857 C20.0571429,4.64285714 15.6,0.185714286 10.0285714,0.185714286 C4.45714286,0.185714286 0,4.64285714 0,10.0285714 C0,15.6 4.45714286,20.0571429 10.0285714,20.0571429 C11.8857143,20.0571429 13.7428571,19.5 15.2285714,18.5714286 L21.9142857,25.0714286 C22.4714286,25.6285714 23.0285714,25.8142857 23.5857143,25.8142857 C24.1428571,25.8142857 24.8857143,25.6285714 25.2571429,25.0714286 C26.1857143,24.3285714 26.1857143,22.6571429 25.2571429,21.7285714 Z M2.97142857,10.0285714 C2.97142857,6.12857143 6.12857143,2.97142857 10.0285714,2.97142857 C13.9285714,2.97142857 17.0857143,6.12857143 17.0857143,10.0285714 C17.0857143,13.9285714 13.9285714,17.0857143 10.0285714,17.0857143 C6.12857143,17.0857143 2.97142857,14.1142857 2.97142857,10.0285714 Z" id="Shape"></path>
        </g>
    </g>
</svg>